PathFileType	4	(X/Y/Z)	C:/Users/alexw/Dropbox/ABI/BIOMENG 771 Files/BIOMENG_771/KinematicsLab/Left.trc	
DataRate	CameraRate	NumFrames	NumMarkers	Units	OrigDataRate	OrigDataStartFrame	OrigNumFrames	
120.00	120.00	30	8	mm	120.00	1305	1491	
Frame#	Time	RAsis			LAsis			RPsis			LPsis			LThighSuperior			LThighInferior			LThighLateral			LPatella			
		X1	Y1	Z1	X2	Y2	Z2	X3	Y3	Z3	X4	Y4	Z4	X5	Y5	Z5	X6	Y6	Z6	X7	Y7	Z7	X8	Y8	Z8	

1305	10.867	-612.26599	86.99454	1001.03351	-354.81540	146.67499	1036.61145	-529.26276	316.49435	964.85455	-472.51596	330.81018	972.07031	-243.53711	167.35864	920.34076	-110.23510	13.07488	785.99261	-205.83629	18.97581	872.73328	-95.18592	-81.99683	739.63458 
1306	10.875	-611.70679	86.81305	1000.98700	-354.38559	147.43140	1036.48633	-529.71466	316.62036	965.44202	-472.93411	331.11526	972.60223	-243.36955	169.29201	919.22974	-109.31078	17.83579	782.62109	-204.94209	21.98706	869.65540	-93.53812	-76.16246	734.75146 
1307	10.883	-610.92108	86.49870	1000.90796	-353.92770	148.07619	1036.35547	-530.12189	316.67664	965.97614	-473.43161	331.39383	973.17255	-243.42482	171.40512	918.11841	-108.58940	22.76991	779.02704	-204.05640	24.78234	866.57196	-92.17445	-70.31418	729.69165 
1308	10.892	-610.12732	86.02211	1000.74469	-353.40735	148.74762	1036.20850	-530.53503	316.78168	966.60370	-473.84250	331.77597	973.80188	-243.09087	173.32570	917.08136	-108.02148	27.74888	775.22040	-203.15462	27.77558	863.44513	-91.00307	-64.50134	724.47888 
1309	10.900	-609.43823	85.62924	1000.36194	-352.98892	149.43936	1035.92358	-531.04730	316.90988	967.43115	-474.33524	332.30801	974.44904	-243.08412	175.41862	915.85083	-107.77895	32.70979	771.22174	-202.40688	30.60987	860.13177	-90.16543	-58.57354	719.03595 
1310	10.908	-608.66980	85.30102	999.88843	-352.49789	150.17226	1035.62292	-531.30219	317.11209	968.07733	-474.74591	332.72839	975.16296	-243.00592	177.43610	914.61853	-107.51138	37.82049	767.13483	-201.76324	33.58998	856.67511	-89.40427	-52.74955	713.48425 
1311	10.917	-607.77362	84.88163	999.39160	-351.89203	150.90720	1035.20923	-531.71863	317.35559	968.83551	-475.09384	333.17532	975.91888	-242.97473	179.64961	913.45844	-107.51417	42.73034	762.91779	-201.03326	36.50679	853.21588	-88.97128	-46.80246	707.87122 
1312	10.925	-606.91669	84.49122	998.89233	-351.29117	151.57411	1034.86279	-532.35211	317.67560	969.86896	-475.30954	333.61316	976.51770	-243.05138	181.75763	912.04724	-107.58954	47.85305	758.61554	-200.43489	39.52962	849.58551	-88.76595	-40.77625	702.17316 
1313	10.933	-605.91083	84.04770	998.41522	-350.64084	152.25182	1034.51111	-532.82074	317.83490	970.61353	-475.97498	334.14804	977.45886	-242.61253	183.87373	910.88123	-107.84382	53.03587	754.36432	-200.04358	42.72038	845.87183	-88.61430	-34.81704	696.45752 
1314	10.942	-604.89075	83.50448	998.04352	-349.94943	153.12000	1034.23462	-533.28424	317.94373	971.59399	-476.44818	334.70706	978.21838	-242.67976	186.34656	909.56268	-108.23687	58.04069	750.15179	-199.58507	45.91249	842.33282	-88.49887	-28.75663	690.82617 
1315	10.950	-603.92834	83.13585	997.85187	-349.33081	154.04066	1034.14392	-533.59155	318.16830	972.47284	-476.98590	335.18622	979.31512	-242.56512	188.56450	908.24530	-108.78535	63.41336	745.95795	-199.18242	49.43203	838.77551	-88.83174	-22.31948	685.08643 
1316	10.958	-603.00903	83.04023	997.70288	-348.67648	154.91795	1034.11951	-533.96210	318.32889	973.36200	-477.37549	335.68405	980.17084	-242.54726	191.04051	906.93402	-109.39796	68.72256	741.79517	-198.74223	53.08523	835.33856	-89.04456	-16.02228	679.50391 
1317	10.967	-602.18958	82.97359	997.77734	-347.97943	155.94240	1034.12463	-534.46851	318.59033	974.30127	-477.99234	336.21436	981.12708	-242.74068	193.69827	905.49432	-110.07433	74.13595	737.67670	-198.25964	56.78286	831.91901	-89.39934	-9.47190	673.85095 
1318	10.975	-601.20251	82.89470	997.90234	-347.34927	157.05327	1034.26099	-535.04474	318.74576	975.32104	-478.49893	336.66376	982.11609	-242.82602	196.29712	904.06805	-111.00615	79.79552	733.54602	-197.97787	60.58341	828.47308	-90.11542	-2.79079	668.20081 
1319	10.983	-600.39166	82.81630	998.05890	-346.74301	158.15543	1034.51489	-535.51880	319.03452	976.25183	-479.07971	337.22769	983.07806	-243.03470	198.87398	902.43646	-111.88964	85.43865	729.41986	-197.77113	64.51883	824.88507	-90.84959	3.85349	662.53168 
1320	10.992	-599.35852	82.71040	998.12128	-346.09894	159.32117	1034.61084	-535.86566	319.18784	977.21619	-479.58261	337.82330	983.90277	-243.35535	201.39029	900.94781	-113.04211	91.11935	725.10852	-197.60794	68.42467	821.25659	-91.72846	10.61540	656.79504 
1321	11.000	-598.42517	82.55126	998.11151	-345.49918	160.37392	1034.68384	-536.49249	319.41196	978.25342	-479.96536	338.28568	984.77484	-243.75087	204.06355	899.15247	-113.90859	97.04053	720.75714	-197.61903	72.50413	817.55164	-92.72275	17.19948	651.08899 
1322	11.008	-597.34143	82.33080	998.04962	-344.91052	161.39922	1034.61658	-536.87811	319.63400	978.92963	-480.47070	338.71173	985.77380	-243.95645	206.70009	897.49060	-115.09953	102.74606	716.41986	-197.79457	76.43149	813.61511	-93.95036	23.96037	645.32922 
1323	11.017	-596.32489	82.12270	997.83698	-344.30103	162.50052	1034.50720	-537.23059	319.82928	979.70062	-481.05417	339.33514	986.57489	-244.24585	209.33781	895.77881	-116.56505	108.25661	712.06952	-198.10823	80.19050	809.82166	-95.18224	30.66733	639.30463 
1324	11.025	-595.37329	81.90948	997.54205	-343.64032	163.39456	1034.38245	-537.68311	320.12061	980.64679	-481.60843	339.81564	987.47565	-244.53288	211.94505	894.19861	-118.19478	113.81450	707.62958	-198.62900	83.96538	805.87360	-96.83918	37.34231	633.73621 
1325	11.033	-594.19727	81.57244	997.04840	-342.99719	164.22041	1034.12988	-537.95612	320.28329	981.25128	-482.05261	340.24548	988.18420	-244.95476	214.68501	892.47565	-120.06399	119.27946	703.16656	-199.23036	87.87849	801.90302	-98.75469	44.10753	627.67206 
1326	11.042	-593.21100	81.23012	996.60095	-342.32059	165.13716	1033.73987	-538.45221	320.51202	982.11163	-482.34241	340.59659	988.77295	-245.56664	217.44525	890.74084	-122.23235	124.50111	698.66541	-199.91545	91.61480	798.09192	-100.91201	50.67911	621.98590 
1327	11.050	-592.18933	80.79891	996.22369	-341.84402	165.86566	1033.44995	-538.59131	320.72397	982.79095	-482.89307	340.86938	989.51379	-245.93179	219.95036	888.96271	-124.30933	129.96797	694.10907	-200.56258	95.20689	794.32050	-103.38067	57.32081	616.07135 
1328	11.058	-591.20410	80.45825	995.99518	-341.13510	166.72649	1033.10461	-538.73547	320.84427	983.28094	-483.42520	341.18723	990.11237	-246.31888	222.34386	887.14703	-126.93649	135.06029	689.62091	-201.30818	98.84736	790.67731	-106.09981	63.99286	610.27307 
1329	11.067	-590.07758	80.21784	995.90753	-340.32791	167.74448	1032.81140	-539.06787	320.97693	983.81934	-483.86227	341.56393	990.54187	-246.66202	224.51350	885.28369	-129.06247	140.71211	685.28387	-201.89558	102.53786	786.93384	-108.92574	70.76133	604.42401 
1330	11.075	-589.20270	80.06702	995.92450	-339.68350	168.47131	1032.65637	-539.44391	321.09372	984.52026	-484.27521	341.77884	991.07159	-247.10344	227.01088	883.28687	-131.53267	146.33493	680.79895	-202.38919	106.53914	783.13824	-111.98215	77.61374	598.63544 
1331	11.083	-588.29645	80.00043	995.94043	-338.74112	169.36412	1032.49329	-539.57825	321.13239	984.88745	-484.67770	341.98752	991.47955	-247.81201	229.51834	881.36951	-134.15921	151.97511	676.37952	-202.87689	110.67989	779.29010	-115.04282	84.78003	592.98132 
1332	11.092	-587.37152	79.92546	995.90265	-337.81265	170.30681	1032.31165	-539.74982	321.15738	985.28241	-484.96906	342.08615	991.75421	-248.59497	231.97374	879.39453	-136.60612	157.94945	671.93610	-203.34198	115.02399	775.46082	-118.29109	92.01067	587.19330 
1333	11.100	-586.38623	79.63432	996.00031	-336.92337	171.18167	1032.08032	-539.97961	321.07449	985.70026	-485.20508	342.12479	991.99109	-249.19293	234.40498	877.49237	-139.50146	163.58792	667.52234	-204.04532	119.32484	771.60913	-121.53944	99.25974	581.60376 
1334	11.108	-585.46387	79.33868	996.06903	-335.98627	171.89127	1031.92566	-540.31677	320.87665	986.21539	-485.50754	342.17468	992.28967	-249.78072	236.76677	875.60773	-142.37219	169.73221	663.20532	-204.84837	123.51316	767.95123	-125.14433	106.53365	576.11835 
